<?xml version="1.0" encoding="UTF-8"?>
<svg width="295px" height="70px" viewBox="0 0 295 70" version="1.1" xmlns="http://www.w3.org/2000/svg" xmlns:xlink="http://www.w3.org/1999/xlink">
    <title>minifinas-logo-light-h@3x</title>
    <g id="minifinans" stroke="none" stroke-width="1" fill="none" fill-rule="evenodd">
        <g id="start" transform="translate(-547.000000, -234.000000)">
            <g id="minifinas-logo-light-h" transform="translate(546.999681, 234.000680)">
                <g id="Group" transform="translate(96.152829, 27.650651)" fill="#000000">
                    <polygon id="Fill-1" points="23.9594112 27.9363509 23.9594112 13.2670346 16.9430412 27.9363509 11.557081 27.9363509 4.54071102 13.2670346 4.54071102 27.9363509 0 27.9363509 0 3.51150888 4.60881167 3.51150888 14.2490596 23.5309524 23.8913105 3.51150888 28.5001222 3.51150888 28.5001222 27.9363509"></polygon>
                    <path d="M32.7940685,27.9115318 L37.4028802,27.9115318 L37.4028802,7.36167901 L32.7940685,7.36167901 L32.7940685,27.9115318 Z M32.7940685,4.60555286 L37.4028802,4.60555286 L37.4028802,-5.68434189e-14 L32.7940685,-5.68434189e-14 L32.7940685,4.60555286 Z" id="Fill-2"></path>
                    <path d="M62.4567089,18.9880479 L62.4567089,27.9129328 L57.8499002,27.9129328 L57.8499002,18.9880479 C57.8499002,15.8836531 57.8499002,11.0319103 53.6597072,11.0319103 C50.6472549,11.0319103 47.8350987,13.2836474 46.2327304,15.6714894 L46.2327304,27.9109313 L41.6259217,27.9109313 L41.6259217,7.36107855 L46.2327304,7.36107855 L46.2327304,11.4222114 C48.0454095,9.17047437 51.3943591,6.97678209 54.7272851,6.97678209 C59.6325349,6.97678209 62.4567089,10.0651646 62.4567089,18.9880479" id="Fill-3"></path>
                    <path d="M66.3296329,27.9115318 L70.9384446,27.9115318 L70.9384446,7.36167901 L66.3296329,7.36167901 L66.3296329,27.9115318 Z M66.3296329,4.60555286 L70.9384446,4.60555286 L70.9384446,-5.68434189e-14 L66.3296329,-5.68434189e-14 L66.3296329,4.60555286 Z" id="Fill-5"></path>
                    <polygon id="Fill-7" points="95.3843749 3.51130872 95.3843749 7.6224802 80.1118025 7.6224802 80.1118025 13.1887742 92.3158397 13.1887742 92.3158397 17.2999457 80.1118025 17.2999457 80.1118025 27.9341492 75.2045498 27.9341492 75.2045498 3.51130872"></polygon>
                    <path d="M97.9423555,27.9115318 L102.551167,27.9115318 L102.551167,7.36167901 L97.9423555,7.36167901 L97.9423555,27.9115318 Z M97.9423555,4.60555286 L102.551167,4.60555286 L102.551167,-5.68434189e-14 L97.9423555,-5.68434189e-14 L97.9423555,4.60555286 Z" id="Fill-8"></path>
                    <path d="M127.605797,18.9880479 L127.605797,27.9129328 L122.998988,27.9129328 L122.998988,18.9880479 C122.998988,15.8836531 122.998988,11.0319103 118.808795,11.0319103 C115.796343,11.0319103 112.984187,13.2836474 111.381819,15.6714894 L111.381819,27.9109313 L106.77501,27.9109313 L106.77501,7.36107855 L111.381819,7.36107855 L111.381819,11.4222114 C113.194498,9.17047437 116.543447,6.97678209 119.876373,6.97678209 C124.781623,6.97678209 127.605797,10.0651646 127.605797,18.9880479" id="Fill-9"></path>
                    <path d="M146.827606,21.7537815 C145.044972,20.3667115 142.419091,19.073714 139.642988,19.073714 C136.438251,19.073714 135.212439,20.5068195 135.212439,22.1540903 C135.212439,23.801361 137.135281,25.2304635 139.642988,25.2304635 C142.419091,25.2304635 145.042969,23.9674892 146.827606,22.5804192 L146.827606,21.7537815 Z M151.434415,16.4116604 L151.434415,27.9125325 L146.827606,27.9125325 L146.827606,25.7728819 C144.778578,27.1299288 141.629924,28.2988305 138.491285,28.2988305 C132.698724,28.2988305 130.603628,25.2304635 130.603628,22.1540903 C130.603628,19.0777171 132.907032,15.9993423 138.491285,16.0013439 C141.629924,16.0013439 144.778578,17.1822549 146.827606,18.5393017 L146.827606,16.4116604 C146.827606,12.5186572 146.240739,10.7392846 141.447655,10.7392846 C136.654571,10.7392846 132.929065,13.121122 132.929065,13.121122 L130.825956,10.0187287 C130.825956,10.0187287 135.558952,6.96437252 141.119169,6.96437252 C149.179082,6.96437252 151.434415,10.7152661 151.434415,16.4116604 L151.434415,16.4116604 Z" id="Fill-10"></path>
                    <path d="M176.183393,18.9880479 L176.183393,27.9129328 L171.574581,27.9129328 L171.574581,18.9880479 C171.574581,15.8836531 171.574581,11.0319103 167.384388,11.0319103 C164.373939,11.0319103 161.561783,13.2836474 159.959415,15.6714894 L159.959415,27.9109313 L155.352606,27.9109313 L155.352606,7.36107855 L159.959415,7.36107855 L159.959415,11.4222114 C161.770091,9.17047437 165.121043,6.97678209 168.451966,6.97678209 C173.357216,6.97678209 176.183393,10.0651646 176.183393,18.9880479" id="Fill-11"></path>
                    <path d="M198.847691,22.0900409 C198.847691,25.7648758 195.238356,28.3008321 189.640082,28.3008321 C184.043811,28.3008321 178.78604,25.6227661 178.78604,25.6227661 L180.490559,22.2101335 C180.490559,22.2101335 185.706268,24.5579447 189.27354,24.5579447 C192.840812,24.5579447 194.989989,23.731307 194.989989,22.0339977 C194.989989,20.3306837 193.469742,19.3979641 188.147876,19.3979641 C182.824008,19.3979641 180.120011,17.6386069 180.120011,13.8156578 C180.120011,9.20810339 184.043811,6.98038487 189.642085,6.98038487 C194.51729,6.98038487 198.222767,8.89185943 198.222767,8.89185943 L196.800665,12.348526 C196.800665,12.348526 192.814774,10.4690761 189.303584,10.4690761 C185.792395,10.4690761 184.001748,11.9161925 184.001748,13.2312069 C184.001748,14.5462214 184.586613,15.6790953 190.735701,15.6790953 C196.135682,15.6790953 198.849693,18.4132045 198.847691,22.0900409" id="Fill-12"></path>
                </g>
                <path d="M74.7542023,54.746554 L52.110736,15.8965841 L52.0967153,15.9025887 L45.3086828,4.22558072 C44.0287912,2.02788536 42.0078042,0.706866285 39.8265805,0.220491081 C39.7344443,0.198474096 39.6423081,0.182461744 39.5501719,0.164447847 C39.347873,0.126418511 39.145574,0.0903907176 38.941272,0.0683737331 C38.8871921,0.062369101 38.8351151,0.0483582926 38.7830381,0.0423536605 C38.7009168,0.0343474843 38.6167924,0.0343474843 38.5346711,0.0323459402 C38.5126385,0.0303443962 38.4906059,0.0303443962 38.4665704,0.0283428521 C38.3483958,0.02233822 38.2302211,0.00232277951 38.1120464,0 C38.0519576,-0.00168030858 37.9918688,0.00632586761 37.933783,0.00632586761 C37.8736942,0.00632586761 37.8156083,-0.00168030858 37.7575225,0 C37.6373449,0.00232277951 37.5191702,0.02233822 37.4009955,0.0283428521 C37.37696,0.0303443962 37.3549274,0.0303443962 37.3308919,0.0323459402 C37.2487706,0.0343474843 37.1666492,0.0343474843 37.0845278,0.0423536605 C37.0324508,0.0483582926 36.9803739,0.062369101 36.9262939,0.0683737331 C36.721992,0.0903907176 36.519693,0.126418511 36.319397,0.164447847 C36.2252578,0.182461744 36.1331217,0.198474096 36.0409855,0.220491081 C33.8597617,0.706866285 31.8387748,2.02788536 30.5588831,4.22558072 L23.7708506,15.9025887 L23.7588329,15.8965841 L1.11336365,54.746554 C-0.290711528,57.1564131 -0.344791457,60.0446411 0.826940323,62.4504971 C1.21551462,63.2511147 1.74229318,63.9976906 2.39926416,64.6541971 L5.3496247,67.6024715 C6.1167585,68.3710644 7.02209655,68.9675245 8.00555007,69.377841 C8.99100654,69.7841545 10.0545785,69.9983197 11.1401829,69.9983197 L31.4542064,69.9983197 L31.8327659,69.9983197 C33.088622,69.9983197 34.29841,69.5379646 35.2297866,68.7053222 C35.3739997,68.5772234 35.4981832,68.4271076 35.612352,68.2729887 C36.0550062,67.6665209 36.671918,67.2982368 37.3308919,67.1321086 C37.4731021,67.0980824 37.6133093,67.060053 37.7575225,67.0440407 C37.8156083,67.038036 37.8736942,67.0420391 37.933783,67.038036 C37.9918688,67.0420391 38.0519576,67.038036 38.1120464,67.0440407 C38.2542566,67.060053 38.3944638,67.0980824 38.5346711,67.1321086 C39.1976509,67.2982368 39.8125597,67.6665209 40.255214,68.2729887 C40.3693827,68.4271076 40.4935663,68.5772234 40.6377794,68.7053222 C41.5711589,69.5379646 42.778944,69.9983197 44.0348001,69.9983197 L44.4133596,69.9983197 L64.727383,69.9983197 C65.8129875,69.9983197 66.8765594,69.7841545 67.8620159,69.377841 C68.8454694,68.9675245 69.7508075,68.3710644 70.5179413,67.6024715 L73.4683018,64.6541971 C74.1252728,63.9976906 74.6520513,63.2511147 75.0426286,62.4504971 C76.2123574,60.0446411 76.1582775,57.1564131 74.7542023,54.746554" id="Fill-13" fill="#EC1B54"></path>
                <path d="M50.811616,39.4261354 C50.8196278,39.3861046 50.8276397,39.3460737 50.8356515,39.3060428 C50.8636929,39.1879517 50.8977433,39.0698606 50.9357995,38.9557726 C50.9538262,38.8977278 50.9718528,38.8416846 50.9918824,38.7876429 C51.0279357,38.6855641 51.0699979,38.5854869 51.114063,38.4874113 C51.1441074,38.4213603 51.1761548,38.3573109 51.2082021,38.2932615 C51.2542702,38.2071951 51.3003383,38.1231303 51.3524153,38.041067 C51.3964804,37.9670098 51.4465544,37.9009589 51.4966284,37.8329064 C51.5487054,37.7608508 51.6007823,37.6907967 51.6588682,37.6227442 C51.7229629,37.5486871 51.7930665,37.4786331 51.8631701,37.4105806 C51.921256,37.3545373 51.9773389,37.2964926 52.0414336,37.2424509 C52.1315668,37.1663922 52.2317148,37.0963382 52.3318629,37.0282857 C52.3899487,36.9882548 52.4420257,36.9462224 52.5021145,36.908193 C52.6723661,36.8061143 52.8526325,36.7120417 53.0529286,36.6299784 C53.4555236,36.4598472 53.8861601,36.3577684 54.3208024,36.3217406 C54.2066337,36.4638502 54.0964709,36.6039583 53.988311,36.7200479 C52.9027065,37.9009589 51.819105,39.0798683 50.7335005,40.2607793 C50.7174768,40.2787932 50.6994502,40.2988086 50.6834265,40.314821 C50.7034561,40.0105863 50.7495242,39.7163593 50.811616,39.4261354 L50.811616,39.4261354 Z M50.6633969,67.4017166 L50.7194798,45.8070579 C52.6683602,43.7414644 54.6212465,41.6718679 56.4479463,39.5142034 C58.0102553,37.6667782 57.9721991,34.9386737 55.9131559,33.3534508 C53.483565,31.4820071 49.8141417,33.1653057 48.792632,35.7733175 C48.1677084,37.3725512 48.1797261,39.4241339 48.2718623,41.3856471 L48.2718623,41.3916517 L48.2798742,42.9308391 C47.1301749,44.1818041 45.9784728,45.4327691 44.8287735,46.6837342 C43.4827842,48.1468629 42.1387978,49.6099916 40.7948115,51.0711187 C40.5484474,51.3373241 40.3181069,51.6235449 40.0577221,51.8737379 C39.9836126,51.9457935 39.5649939,52.4541856 39.1623988,52.9345562 C39.1644018,52.8524929 39.1623988,52.7704296 39.1644018,52.6883663 L39.1644018,52.6823617 C39.1684077,52.5682737 39.1704107,52.4561872 39.1704107,52.3441007 C39.1704107,50.016305 39.5008991,47.3682622 38.2490489,45.2806518 C37.7042437,44.3699492 37.1113675,43.9436204 36.5004646,43.857554 C35.571091,43.7254521 34.5976523,44.38396 33.6702817,45.3667182 C33.5320774,45.5128309 33.3978791,45.6609451 33.2596748,45.8090594 C32.0518897,47.1000553 30.8641343,48.4070636 29.6703699,49.7120703 C29.4360236,49.9702695 29.1996743,50.2264671 28.9653279,50.4846663 C28.5447062,50.9410183 28.1461171,51.4353997 27.697454,51.8637302 C27.5852883,51.969812 27.0084357,52.3941393 26.9162995,52.5242397 C26.8702314,52.5882891 26.8281693,52.6403292 26.792116,52.6783586 C26.7961219,52.5502598 26.8021308,52.4181579 26.8021308,52.2920606 C26.8021308,51.9638074 26.8081397,51.6255464 26.8181545,51.2812808 C26.8782433,48.9634928 27.0204534,46.3714933 25.6083664,44.4820357 C25.1016175,43.8055138 24.5928656,43.4892699 24.0901225,43.4192158 C23.0005121,43.2670985 21.9409461,44.2718736 21.0015577,45.292661 C17.9850995,48.5731917 14.9686413,51.855724 11.9521831,55.1362547 C11.1690256,55.9869109 13.0297757,59.4315682 13.9291049,58.4548147 C16.8253855,55.3023828 19.723669,52.1499509 22.6199497,48.9995206 C22.9644588,48.6252319 23.2929443,48.22092 23.661489,47.8686482 C23.7315926,47.8005957 24.3765458,47.2982082 24.4366347,47.2141433 C24.4847057,47.1460908 24.5247649,47.0960522 24.5628212,47.0560213 C24.5588152,47.2261526 24.5548093,47.3962838 24.5528063,47.5644135 C24.5528063,47.5824274 24.5508034,47.6044444 24.5508034,47.6224583 C24.5508034,49.9902849 24.2002853,52.7324003 25.4741681,54.8560385 C26.4195654,56.4372583 27.4711195,56.5533479 28.504647,56.0069263 C28.7790526,55.8628152 29.0494522,55.6646623 29.3198519,55.4424909 C29.6543463,55.1642763 29.9848347,54.8420277 30.3053084,54.493759 C31.1866109,53.5350194 32.0699164,52.5742783 32.9532219,51.6135371 C33.7363794,50.7628809 34.5195368,49.9102232 35.3026943,49.0575654 C35.5851117,48.7513292 36.4083284,48.176886 36.8890389,47.7725741 L36.9110714,48.9975191 C36.9110714,49.0115299 36.9090685,49.0255407 36.9090685,49.041553 C36.9150774,49.1796596 36.9210862,49.3237708 36.9210862,49.4598757 C36.9210862,51.6075325 36.7969027,55.2763628 39.2284965,56.285141 C40.8028233,56.9396459 42.0486646,55.1762856 42.9960649,54.1454904 C44.552365,52.4501826 46.1106681,50.7568763 47.6689713,49.0615685 C47.881285,48.8313909 48.0956018,48.6012134 48.3099186,48.3730373 L48.4120695,67.4017166 L48.4120695,69.9496822 L50.6633969,69.9496822 L50.6633969,67.4017166 Z" id="Fill-14" fill="#FEFEFE"></path>
            </g>
        </g>
    </g>
</svg>