<?xml version="1.0" encoding="UTF-8"?>
<svg width="199px" height="111px" viewBox="0 0 199 111" version="1.1" xmlns="http://www.w3.org/2000/svg" xmlns:xlink="http://www.w3.org/1999/xlink">
    <title>minifinas-logo-dark-v@3x</title>
    <g id="minifinans" stroke="none" stroke-width="1" fill="none" fill-rule="evenodd">
        <g id="start" transform="translate(-242.000000, -375.000000)">
            <g id="minifinas-logo-dark-v" transform="translate(242.000000, 375.000000)">
                <g id="Group-4" transform="translate(0.000000, 82.000000)" fill="#FFFFFF">
                    <polygon id="Fill-1" points="23.9594112 27.9363509 23.9594112 13.2670346 16.9430412 27.9363509 11.557081 27.9363509 4.54071102 13.2670346 4.54071102 27.9363509 0 27.9363509 0 3.51150888 4.60881167 3.51150888 14.2490596 23.5309524 23.8913105 3.51150888 28.5001222 3.51150888 28.5001222 27.9363509"></polygon>
                    <path d="M32.7940685,27.9115318 L37.4028802,27.9115318 L37.4028802,7.36167901 L32.7940685,7.36167901 L32.7940685,27.9115318 Z M32.7940685,4.60555286 L37.4028802,4.60555286 L37.4028802,0 L32.7940685,0 L32.7940685,4.60555286 Z" id="Fill-2"></path>
                    <g id="Group-15" transform="translate(41.625922, 0.000000)">
                        <path d="M20.8307872,18.9880479 L20.8307872,27.9129328 L16.2239785,27.9129328 L16.2239785,18.9880479 C16.2239785,15.8836531 16.2239785,11.0319103 12.0337855,11.0319103 C9.02133322,11.0319103 6.20917695,13.2836474 4.60680871,15.6714894 L4.60680871,27.9109313 L0,27.9109313 L0,7.36107855 L4.60680871,7.36107855 L4.60680871,11.4222114 C6.41948779,9.17047437 9.76843742,6.97678209 13.1013634,6.97678209 C18.0066132,6.97678209 20.8307872,10.0651646 20.8307872,18.9880479" id="Fill-3"></path>
                        <path d="M24.7037112,27.9115318 L29.3125229,27.9115318 L29.3125229,7.36167901 L24.7037112,7.36167901 L24.7037112,27.9115318 Z M24.7037112,4.60555286 L29.3125229,4.60555286 L29.3125229,0 L24.7037112,0 L24.7037112,4.60555286 Z" id="Fill-5"></path>
                        <polygon id="Fill-7" points="53.7584532 3.51130872 53.7584532 7.6224802 38.4858808 7.6224802 38.4858808 13.1887742 50.689918 13.1887742 50.689918 17.2999457 38.4858808 17.2999457 38.4858808 27.9341492 33.5786281 27.9341492 33.5786281 3.51130872"></polygon>
                        <path d="M56.3164338,27.9115318 L60.9252454,27.9115318 L60.9252454,7.36167901 L56.3164338,7.36167901 L56.3164338,27.9115318 Z M56.3164338,4.60555286 L60.9252454,4.60555286 L60.9252454,0 L56.3164338,0 L56.3164338,4.60555286 Z" id="Fill-8"></path>
                        <path d="M85.9798753,18.9880479 L85.9798753,27.9129328 L81.3730666,27.9129328 L81.3730666,18.9880479 C81.3730666,15.8836531 81.3730666,11.0319103 77.1828737,11.0319103 C74.1704214,11.0319103 71.3582651,13.2836474 69.7558969,15.6714894 L69.7558969,27.9109313 L65.1490881,27.9109313 L65.1490881,7.36107855 L69.7558969,7.36107855 L69.7558969,11.4222114 C71.5685759,9.17047437 74.9175256,6.97678209 78.2504515,6.97678209 C83.1557013,6.97678209 85.9798753,10.0651646 85.9798753,18.9880479" id="Fill-9"></path>
                        <path d="M105.201685,21.7537815 C103.41905,20.3667115 100.793169,19.073714 98.0170659,19.073714 C94.8123294,19.073714 93.5865177,20.5068195 93.5865177,22.1540903 C93.5865177,23.801361 95.5093596,25.2304635 98.0170659,25.2304635 C100.793169,25.2304635 103.417047,23.9674892 105.201685,22.5804192 L105.201685,21.7537815 Z M109.808493,16.4116604 L109.808493,27.9125325 L105.201685,27.9125325 L105.201685,25.7728819 C103.152656,27.1299288 100.004003,28.2988305 96.8653637,28.2988305 C91.0728025,28.2988305 88.977706,25.2304635 88.977706,22.1540903 C88.977706,19.0777171 91.2811104,15.9993423 96.8653637,16.0013439 C100.004003,16.0013439 103.152656,17.1822549 105.201685,18.5393017 L105.201685,16.4116604 C105.201685,12.5186572 104.614817,10.7392846 99.8217331,10.7392846 C95.0286491,10.7392846 91.303143,13.121122 91.303143,13.121122 L89.2000346,10.0187287 C89.2000346,10.0187287 93.9330298,6.96437252 99.4932476,6.96437252 C107.55316,6.96437252 109.808493,10.7152661 109.808493,16.4116604 L109.808493,16.4116604 Z" id="Fill-10"></path>
                        <path d="M134.557471,18.9880479 L134.557471,27.9129328 L129.94866,27.9129328 L129.94866,18.9880479 C129.94866,15.8836531 129.94866,11.0319103 125.758467,11.0319103 C122.748017,11.0319103 119.935861,13.2836474 118.333493,15.6714894 L118.333493,27.9109313 L113.726684,27.9109313 L113.726684,7.36107855 L118.333493,7.36107855 L118.333493,11.4222114 C120.144169,9.17047437 123.495122,6.97678209 126.826045,6.97678209 C131.731294,6.97678209 134.557471,10.0651646 134.557471,18.9880479" id="Fill-11"></path>
                        <path d="M148.01416,28.3008321 C142.417889,28.3008321 137.160118,25.6227661 137.160118,25.6227661 L138.864637,22.2101335 C138.864637,22.2101335 144.080346,24.5579447 147.647618,24.5579447 C151.21489,24.5579447 153.364067,23.731307 153.364067,22.0339977 C153.364067,20.3306837 151.84382,19.3979641 146.521954,19.3979641 C141.198086,19.3979641 138.49409,17.6386069 138.49409,13.8156578 C138.49409,9.20810339 142.417889,6.98038487 148.016163,6.98038487 C152.891368,6.98038487 156.596845,8.89185943 156.596845,8.89185943 L155.174743,12.348526 C155.174743,12.348526 151.188852,10.4690761 147.677663,10.4690761 C144.166473,10.4690761 142.375827,11.9161925 142.375827,13.2312069 C142.375827,14.5462214 142.960691,15.6790953 149.109779,15.6790953 C154.50976,15.6790953 157.223771,18.4132045 157.221771,22.0900409 C157.221771,25.7648758 153.612434,28.3008321 148.01416,28.3008321 Z" id="Fill-12"></path>
                    </g>
                </g>
                <g id="Group-2" transform="translate(59.000000, 0.000000)">
                    <path d="M74.7542023,54.746554 L52.110736,15.8965841 L52.0967153,15.9025887 L45.3086828,4.22558072 C44.0287912,2.02788536 42.0078042,0.706866285 39.8265805,0.220491081 C39.7344443,0.198474096 39.6423081,0.182461744 39.5501719,0.164447847 C39.347873,0.126418511 39.145574,0.0903907176 38.941272,0.0683737331 C38.8871921,0.062369101 38.8351151,0.0483582926 38.7830381,0.0423536605 C38.7009168,0.0343474843 38.6167924,0.0343474843 38.5346711,0.0323459402 C38.5126385,0.0303443962 38.4906059,0.0303443962 38.4665704,0.0283428521 C38.3483958,0.02233822 38.2302211,0.00232277951 38.1120464,1.8189894e-12 C38.0519576,-0.00168030858 37.9918688,0.00632586761 37.933783,0.00632586761 C37.8736942,0.00632586761 37.8156083,-0.00168030858 37.7575225,1.8189894e-12 C37.6373449,0.00232277951 37.5191702,0.02233822 37.4009955,0.0283428521 C37.37696,0.0303443962 37.3549274,0.0303443962 37.3308919,0.0323459402 C37.2487706,0.0343474843 37.1666492,0.0343474843 37.0845278,0.0423536605 C37.0324508,0.0483582926 36.9803739,0.062369101 36.9262939,0.0683737331 C36.721992,0.0903907176 36.519693,0.126418511 36.319397,0.164447847 C36.2252578,0.182461744 36.1331217,0.198474096 36.0409855,0.220491081 C33.8597617,0.706866285 31.8387748,2.02788536 30.5588831,4.22558072 L23.7708506,15.9025887 L23.7588329,15.8965841 L1.11336365,54.746554 C-0.290711528,57.1564131 -0.344791457,60.0446411 0.826940323,62.4504971 C1.21551462,63.2511147 1.74229318,63.9976906 2.39926416,64.6541971 L5.3496247,67.6024715 C6.1167585,68.3710644 7.02209655,68.9675245 8.00555007,69.377841 C8.99100654,69.7841545 10.0545785,69.9983197 11.1401829,69.9983197 L31.4542064,69.9983197 L31.8327659,69.9983197 C33.088622,69.9983197 34.29841,69.5379646 35.2297866,68.7053222 C35.3739997,68.5772234 35.4981832,68.4271076 35.612352,68.2729887 C36.0550062,67.6665209 36.671918,67.2982368 37.3308919,67.1321086 C37.4731021,67.0980824 37.6133093,67.060053 37.7575225,67.0440407 C37.8156083,67.038036 37.8736942,67.0420391 37.933783,67.038036 C37.9918688,67.0420391 38.0519576,67.038036 38.1120464,67.0440407 C38.2542566,67.060053 38.3944638,67.0980824 38.5346711,67.1321086 C39.1976509,67.2982368 39.8125597,67.6665209 40.255214,68.2729887 C40.3693827,68.4271076 40.4935663,68.5772234 40.6377794,68.7053222 C41.5711589,69.5379646 42.778944,69.9983197 44.0348001,69.9983197 L44.4133596,69.9983197 L64.727383,69.9983197 C65.8129875,69.9983197 66.8765594,69.7841545 67.8620159,69.377841 C68.8454694,68.9675245 69.7508075,68.3710644 70.5179413,67.6024715 L73.4683018,64.6541971 C74.1252728,63.9976906 74.6520513,63.2511147 75.0426286,62.4504971 C76.2123574,60.0446411 76.1582775,57.1564131 74.7542023,54.746554" id="Fill-13" fill="#EC1B54"></path>
                    <path d="M50.811616,39.4261354 C50.8196278,39.3861046 50.8276397,39.3460737 50.8356515,39.3060428 C50.8636929,39.1879517 50.8977433,39.0698606 50.9357995,38.9557726 C50.9538262,38.8977278 50.9718528,38.8416846 50.9918824,38.7876429 C51.0279357,38.6855641 51.0699979,38.5854869 51.114063,38.4874113 C51.1441074,38.4213603 51.1761548,38.3573109 51.2082021,38.2932615 C51.2542702,38.2071951 51.3003383,38.1231303 51.3524153,38.041067 C51.3964804,37.9670098 51.4465544,37.9009589 51.4966284,37.8329064 C51.5487054,37.7608508 51.6007823,37.6907967 51.6588682,37.6227442 C51.7229629,37.5486871 51.7930665,37.4786331 51.8631701,37.4105806 C51.921256,37.3545373 51.9773389,37.2964926 52.0414336,37.2424509 C52.1315668,37.1663922 52.2317148,37.0963382 52.3318629,37.0282857 C52.3899487,36.9882548 52.4420257,36.9462224 52.5021145,36.908193 C52.6723661,36.8061143 52.8526325,36.7120417 53.0529286,36.6299784 C53.4555236,36.4598472 53.8861601,36.3577684 54.3208024,36.3217406 C54.2066337,36.4638502 54.0964709,36.6039583 53.988311,36.7200479 C52.9027065,37.9009589 51.819105,39.0798683 50.7335005,40.2607793 C50.7174768,40.2787932 50.6994502,40.2988086 50.6834265,40.314821 C50.7034561,40.0105863 50.7495242,39.7163593 50.811616,39.4261354 L50.811616,39.4261354 Z M50.6633969,67.4017166 L50.7194798,45.8070579 C52.6683602,43.7414644 54.6212465,41.6718679 56.4479463,39.5142034 C58.0102553,37.6667782 57.9721991,34.9386737 55.9131559,33.3534508 C53.483565,31.4820071 49.8141417,33.1653057 48.792632,35.7733175 C48.1677084,37.3725512 48.1797261,39.4241339 48.2718623,41.3856471 L48.2718623,41.3916517 L48.2798742,42.9308391 C47.1301749,44.1818041 45.9784728,45.4327691 44.8287735,46.6837342 C43.4827842,48.1468629 42.1387978,49.6099916 40.7948115,51.0711187 C40.5484474,51.3373241 40.3181069,51.6235449 40.0577221,51.8737379 C39.9836126,51.9457935 39.5649939,52.4541856 39.1623988,52.9345562 C39.1644018,52.8524929 39.1623988,52.7704296 39.1644018,52.6883663 L39.1644018,52.6823617 C39.1684077,52.5682737 39.1704107,52.4561872 39.1704107,52.3441007 C39.1704107,50.016305 39.5008991,47.3682622 38.2490489,45.2806518 C37.7042437,44.3699492 37.1113675,43.9436204 36.5004646,43.857554 C35.571091,43.7254521 34.5976523,44.38396 33.6702817,45.3667182 C33.5320774,45.5128309 33.3978791,45.6609451 33.2596748,45.8090594 C32.0518897,47.1000553 30.8641343,48.4070636 29.6703699,49.7120703 C29.4360236,49.9702695 29.1996743,50.2264671 28.9653279,50.4846663 C28.5447062,50.9410183 28.1461171,51.4353997 27.697454,51.8637302 C27.5852883,51.969812 27.0084357,52.3941393 26.9162995,52.5242397 C26.8702314,52.5882891 26.8281693,52.6403292 26.792116,52.6783586 C26.7961219,52.5502598 26.8021308,52.4181579 26.8021308,52.2920606 C26.8021308,51.9638074 26.8081397,51.6255464 26.8181545,51.2812808 C26.8782433,48.9634928 27.0204534,46.3714933 25.6083664,44.4820357 C25.1016175,43.8055138 24.5928656,43.4892699 24.0901225,43.4192158 C23.0005121,43.2670985 21.9409461,44.2718736 21.0015577,45.292661 C17.9850995,48.5731917 14.9686413,51.855724 11.9521831,55.1362547 C11.1690256,55.9869109 13.0297757,59.4315682 13.9291049,58.4548147 C16.8253855,55.3023828 19.723669,52.1499509 22.6199497,48.9995206 C22.9644588,48.6252319 23.2929443,48.22092 23.661489,47.8686482 C23.7315926,47.8005957 24.3765458,47.2982082 24.4366347,47.2141433 C24.4847057,47.1460908 24.5247649,47.0960522 24.5628212,47.0560213 C24.5588152,47.2261526 24.5548093,47.3962838 24.5528063,47.5644135 C24.5528063,47.5824274 24.5508034,47.6044444 24.5508034,47.6224583 C24.5508034,49.9902849 24.2002853,52.7324003 25.4741681,54.8560385 C26.4195654,56.4372583 27.4711195,56.5533479 28.504647,56.0069263 C28.7790526,55.8628152 29.0494522,55.6646623 29.3198519,55.4424909 C29.6543463,55.1642763 29.9848347,54.8420277 30.3053084,54.493759 C31.1866109,53.5350194 32.0699164,52.5742783 32.9532219,51.6135371 C33.7363794,50.7628809 34.5195368,49.9102232 35.3026943,49.0575654 C35.5851117,48.7513292 36.4083284,48.176886 36.8890389,47.7725741 L36.9110714,48.9975191 C36.9110714,49.0115299 36.9090685,49.0255407 36.9090685,49.041553 C36.9150774,49.1796596 36.9210862,49.3237708 36.9210862,49.4598757 C36.9210862,51.6075325 36.7969027,55.2763628 39.2284965,56.285141 C40.8028233,56.9396459 42.0486646,55.1762856 42.9960649,54.1454904 C44.552365,52.4501826 46.1106681,50.7568763 47.6689713,49.0615685 C47.881285,48.8313909 48.0956018,48.6012134 48.3099186,48.3730373 L48.4120695,67.4017166 L48.4120695,69.9496822 L50.6633969,69.9496822 L50.6633969,67.4017166 Z" id="Fill-14" fill="#FEFEFE"></path>
                </g>
            </g>
        </g>
    </g>
</svg>